<?xml version="1.0" encoding="utf-8"?>
<!-- Generator: Adobe Illustrator 17.0.0, SVG Export Plug-In . SVG Version: 6.00 Build 0)  -->
<!DOCTYPE svg PUBLIC "-//W3C//DTD SVG 1.1//EN" "http://www.w3.org/Graphics/SVG/1.1/DTD/svg11.dtd">
<svg version="1.1" id="Layer_1" xmlns="http://www.w3.org/2000/svg" xmlns:xlink="http://www.w3.org/1999/xlink" x="0px" y="0px"
	 width="140px" height="40px" viewBox="0 0 140 40" enable-background="new 0 0 140 40" xml:space="preserve">
<g>
	<g>
		<path fill="#005AA2" d="M126.362,36H10.769c-3.372,0-5.638-2.266-5.638-5.639V10.395c0-3.373,2.266-5.638,5.638-5.638h86.169
			v0.768H10.769c-2.958,0-4.87,1.912-4.87,4.871v19.967c0,2.959,1.912,4.871,4.87,4.871h115.593c2.958,0,4.87-1.912,4.87-4.871
			V10.395c0-2.958-1.912-4.871-4.87-4.871h-15.764V4.756h15.764c3.372,0,5.638,2.266,5.638,5.638v19.967
			C132,33.734,129.734,36,126.362,36z"/>
	</g>
	<g>
		<path fill="#005AA2" d="M10.175,31.166V8.921h3.136l7.129,11.254c1.65,2.607,2.938,4.951,3.994,7.229l0.066-0.033
			c-0.264-2.971-0.33-5.677-0.33-9.143V8.921h2.707v22.245h-2.905l-7.063-11.287c-1.551-2.476-3.036-5.017-4.159-7.426l-0.099,0.033
			c0.165,2.805,0.231,5.479,0.231,9.175v9.505H10.175z"/>
		<path fill="#005AA2" d="M34.76,8.921V22.09c0,4.984,2.211,7.096,5.182,7.096c3.3,0,5.413-2.178,5.413-7.096V8.921h2.905v12.971
			c0,6.832-3.598,9.637-8.417,9.637c-4.555,0-7.987-2.607-7.987-9.505V8.921H34.76z"/>
		<path fill="#005AA2" d="M53.239,8.921h2.872v19.836h9.505v2.408H53.239V8.921z"/>
		<path fill="#005AA2" d="M68.814,8.921h2.872v19.836h9.505v2.408H68.814V8.921z"/>
		<path fill="#005AA2" d="M87.987,24.17l-2.31,6.996h-2.971l7.558-22.245h3.466l7.591,22.245h-3.069l-2.376-6.996H87.987z
			 M95.282,21.926l-2.179-6.403c-0.495-1.453-0.825-2.772-1.155-4.06h-0.066c-0.33,1.32-0.692,2.673-1.122,4.026l-2.178,6.437
			H95.282z"/>
		<path fill="#005AA2" d="M123.201,21.396c-0.165-3.102-0.363-6.832-0.33-9.604h-0.099c-0.76,2.607-1.684,5.38-2.806,8.449
			l-3.928,10.793h-2.178l-3.598-10.595c-1.057-3.135-1.947-6.007-2.574-8.647h-0.066c-0.066,2.772-0.231,6.502-0.429,9.835
			l-0.595,9.538h-2.739l1.552-22.245h3.663l3.796,10.759c0.924,2.739,1.683,5.183,2.244,7.492h0.099
			c0.562-2.244,1.354-4.687,2.344-7.492l3.961-10.759h3.663l1.386,22.245h-2.805L123.201,21.396z"/>
	</g>
</g>
</svg>
