<?xml version="1.0" encoding="utf-8"?>
<!-- Generator: Adobe Illustrator 17.0.0, SVG Export Plug-In . SVG Version: 6.00 Build 0)  -->
<!DOCTYPE svg PUBLIC "-//W3C//DTD SVG 1.1//EN" "http://www.w3.org/Graphics/SVG/1.1/DTD/svg11.dtd">
<svg version="1.1" xmlns="http://www.w3.org/2000/svg" xmlns:xlink="http://www.w3.org/1999/xlink" x="0px" y="0px" width="60px"
	 height="60px" viewBox="0 0 60 60" enable-background="new 0 0 60 60" xml:space="preserve">
<g id="Layer_1">
	<rect fill="#005AA2" width="60" height="59.999"/>
	<rect fill="none" stroke="#005AA2" stroke-width="0.03" stroke-miterlimit="3.864" width="60" height="60"/>
	<path fill="#FFFFFF" d="M2.576,29.791c0-14.757,12.32-26.868,27.354-26.868s27.354,12.111,27.354,26.868
		c0,14.755-12.32,26.798-27.354,26.798S2.576,44.547,2.576,29.791"/>
	<path fill="none" stroke="#005AA2" stroke-width="0.03" stroke-miterlimit="3.864" d="M2.576,29.791
		c0-14.757,12.32-26.868,27.354-26.868s27.354,12.111,27.354,26.868c0,14.755-12.32,26.798-27.354,26.798S2.576,44.547,2.576,29.791
		z"/>
	<path fill="#005AA2" d="M5.778,29.791c0-13.016,10.789-23.735,23.944-23.735s23.944,10.719,23.944,23.735
		S42.877,53.457,29.722,53.457S5.778,42.807,5.778,29.791"/>
	<path fill="none" stroke="#005AA2" stroke-width="0.03" stroke-miterlimit="3.864" d="M5.778,29.791
		c0-13.016,10.789-23.735,23.944-23.735s23.944,10.719,23.944,23.735S42.877,53.457,29.722,53.457S5.778,42.807,5.778,29.791z"/>
	<text transform="matrix(1 0 0 1 18.25 46.875)" fill="#FFFFFF" font-family="'MyriadPro-Regular'" font-size="48">¥</text>
</g>
<g id="Layer_2">
	<path fill="#FFFFFF" d="M26.846,11.084c0-1.88,1.531-3.481,3.41-3.481c1.88,0,3.48,1.602,3.48,3.481c0,1.878-1.6,3.41-3.48,3.41
		C28.377,14.495,26.846,12.963,26.846,11.084"/>
	<path fill="none" stroke="#005AA2" stroke-width="0.03" stroke-miterlimit="3.864" d="M28.795,11.084
		c0-0.766,0.695-1.462,1.461-1.462s1.461,0.696,1.461,1.462c0,0.765-0.695,1.461-1.461,1.461
		C29.491,12.545,28.795,11.849,28.795,11.084z"/>
	<path fill="#005AA2" d="M28.795,11.084c0-0.766,0.695-1.462,1.461-1.462s1.461,0.696,1.461,1.462c0,0.765-0.695,1.461-1.461,1.461
		C29.491,12.545,28.795,11.849,28.795,11.084"/>
	<path fill="none" stroke="#005AA2" stroke-width="0.03" stroke-miterlimit="3.864" d="M26.846,11.084
		c0-1.88,1.531-3.481,3.41-3.481c1.88,0,3.48,1.602,3.48,3.481c0,1.878-1.6,3.41-3.48,3.41
		C28.377,14.495,26.846,12.963,26.846,11.084z"/>
</g>
</svg>
